<?xml version="1.0" standalone="no"?>
<!DOCTYPE svg PUBLIC "-//W3C//DTD SVG 20010904//EN"
 "http://www.w3.org/TR/2001/REC-SVG-20010904/DTD/svg10.dtd">
<svg version="1.0" xmlns="http://www.w3.org/2000/svg"
 width="300.000000pt" height="150.000000pt" viewBox="0 0 300.000000 150.000000"
 preserveAspectRatio="xMidYMid meet">
<metadata>
Created by potrace 1.10, written by Peter Selinger 2001-2011
</metadata>
<g transform="translate(0.000000,150.000000) scale(0.100000,-0.100000)"
fill="#000000" stroke="none">
<path d="M1032 1327 c-12 -28 -22 -55 -22 -59 0 -5 17 -8 38 -8 46 0 134 -40
167 -76 40 -44 40 -77 0 -197 -31 -94 -34 -113 -25 -146 5 -21 18 -45 28 -54
27 -25 87 -47 127 -47 19 0 35 -4 35 -10 0 -5 -17 -10 -37 -10 -48 0 -115 -31
-137 -61 -31 -46 -30 -81 9 -193 43 -123 42 -143 -14 -197 -37 -35 -126 -69
-180 -69 -12 0 -21 -3 -19 -7 55 -116 49 -113 174 -83 88 21 125 35 166 62 26
18 27 18 65 -8 34 -23 46 -25 113 -22 59 2 82 8 108 26 l32 23 0 -26 c0 -21 4
-26 16 -21 9 3 23 6 32 6 16 0 17 27 17 305 l0 305 -44 0 -44 0 6 -110 7 -110
-30 15 c-36 19 -130 20 -173 1 -45 -19 -76 -54 -58 -66 12 -7 12 -13 1 -40
-10 -24 -10 -36 -1 -53 6 -12 13 -59 14 -104 4 -71 2 -82 -13 -86 -25 -6 -37
4 -55 46 -24 57 -20 144 11 204 22 46 24 56 14 93 -9 32 -8 45 1 56 17 21 77
50 119 59 71 14 70 13 70 66 0 27 -3 49 -7 50 -101 10 -193 52 -193 87 0 10
18 72 40 140 22 67 40 135 40 152 0 72 -68 140 -175 174 -39 12 -188 47 -198
46 -1 0 -12 -24 -25 -53z m226 -39 c30 -11 71 -35 90 -53 30 -27 35 -38 35
-76 0 -24 -17 -97 -38 -161 -34 -106 -36 -120 -25 -148 17 -41 63 -75 125 -93
70 -20 69 -39 -2 -61 -102 -32 -144 -99 -114 -178 7 -18 4 -35 -10 -64 -10
-21 -18 -45 -19 -51 0 -7 -3 -13 -7 -13 -10 0 -73 179 -73 206 0 28 35 59 90
80 53 20 85 47 75 64 -4 6 -36 25 -70 42 -110 52 -112 63 -56 220 37 102 35
136 -10 198 -27 38 -111 90 -143 90 -20 0 -31 20 -17 30 16 9 101 -6 169 -32z
m362 -783 c27 -14 30 -20 30 -66 0 -35 4 -51 15 -55 16 -7 21 -54 6 -54 -5 0
-13 -24 -16 -54 -8 -58 -16 -66 -92 -81 -63 -12 -138 30 -138 79 0 11 -4 51
-9 88 -7 61 -6 70 14 99 40 55 128 76 190 44z m-310 -242 c11 -44 10 -49 -10
-65 -24 -19 -116 -48 -177 -56 -35 -4 -43 -2 -43 12 0 9 6 16 13 16 8 0 42 14
76 31 42 21 70 43 88 70 14 21 29 39 33 39 4 0 13 -21 20 -47z"/>
<path d="M1503 459 c-52 -15 -76 -54 -71 -117 6 -73 40 -107 104 -107 39 0 50
5 75 33 24 26 29 41 29 82 0 82 -61 130 -137 109z m32 -109 c0 -89 -8 -98 -50
-55 -16 15 -25 36 -25 55 0 19 9 40 25 55 42 43 50 34 50 -55z m75 0 c0 -28
-21 -55 -33 -43 -4 3 -7 23 -7 43 0 20 3 40 7 43 12 12 33 -15 33 -43z"/>
<path d="M421 1359 c-171 -33 -271 -108 -271 -203 0 -13 18 -77 40 -142 22
-65 40 -128 40 -139 0 -12 -10 -31 -23 -43 -21 -20 -119 -52 -159 -52 -15 0
-18 -9 -18 -49 l0 -48 46 -7 c60 -8 130 -39 143 -64 8 -16 5 -40 -15 -109 -48
-163 -56 -196 -49 -229 13 -70 103 -127 259 -164 44 -11 86 -20 91 -20 9 0 65
89 65 104 0 3 -9 6 -19 6 -10 0 -50 9 -87 21 -85 26 -144 79 -144 129 0 18 16
73 37 123 39 96 43 142 18 181 -20 30 -76 57 -132 64 -57 6 -54 18 6 26 63 8
125 52 141 100 10 32 8 43 -29 131 -23 53 -41 111 -41 131 0 79 64 133 181
155 l66 12 -20 48 c-23 54 -32 57 -126 38z m69 -48 c0 -4 -20 -14 -45 -21
-103 -29 -173 -116 -163 -204 3 -23 20 -75 38 -116 18 -41 33 -85 33 -99 -1
-31 -48 -73 -103 -91 -22 -7 -47 -21 -56 -32 -16 -17 -16 -19 1 -38 10 -11 23
-20 29 -20 6 0 35 -11 64 -25 78 -36 82 -54 38 -161 -46 -111 -54 -160 -32
-201 23 -45 91 -100 147 -118 106 -35 60 -57 -54 -26 -103 28 -163 62 -184
107 -16 33 -16 38 20 162 20 70 37 142 37 161 0 44 -51 95 -111 111 -64 16
-69 18 -69 30 0 6 6 12 13 14 6 2 31 9 55 15 53 15 109 63 117 102 5 21 -5 65
-35 156 -29 89 -40 136 -36 158 6 33 43 73 86 96 71 36 210 63 210 40z"/>
<path d="M439 923 c-1 -5 -2 -28 -3 -53 -1 -25 -9 -85 -18 -135 -20 -114 -18
-149 9 -153 19 -3 22 4 29 70 5 40 9 78 10 83 1 6 3 33 4 60 l1 50 13 -45 c7
-25 25 -84 41 -132 26 -77 32 -88 52 -88 27 0 45 34 93 180 l29 85 1 -80 c1
-44 5 -102 8 -130 6 -46 9 -50 36 -53 16 -2 32 0 37 5 9 9 3 74 -22 261 l-11
82 -34 0 c-29 0 -34 -3 -34 -24 0 -13 -13 -54 -30 -90 -16 -37 -35 -84 -41
-107 l-13 -40 -34 98 c-18 54 -39 113 -45 131 -9 28 -15 32 -44 32 -18 0 -33
-3 -34 -7z"/>
<path d="M898 923 c-30 -3 -38 -9 -38 -24 0 -12 7 -19 20 -19 20 0 21 -5 20
-137 -1 -76 -1 -144 0 -151 0 -9 11 -12 33 -10 l32 3 3 78 3 77 70 0 70 0 -2
-77 c-2 -70 0 -78 17 -81 34 -4 43 12 50 90 8 96 -1 169 -22 161 -10 -4 -14 2
-14 20 0 14 7 27 15 31 8 3 15 13 15 21 0 12 -8 15 -32 13 l-32 -3 3 -65 2
-65 -68 0 -68 0 -5 70 c-5 76 -5 75 -72 68z"/>
<path d="M2363 673 c-9 -3 -13 -26 -13 -64 l0 -59 -40 0 c-28 0 -40 -4 -40
-14 0 -8 -3 -21 -6 -30 -5 -13 2 -16 35 -16 l41 0 0 -117 c0 -65 5 -135 11
-156 14 -50 57 -77 124 -77 59 0 70 6 78 41 7 26 6 26 -41 21 -37 -3 -53 0
-72 16 -24 19 -25 26 -29 146 l-3 126 66 0 c50 0 66 3 66 14 0 8 3 21 6 30 5
14 -4 16 -64 16 l-71 0 6 65 c5 64 5 65 -18 64 -13 0 -30 -3 -36 -6z m34 -139
c3 -8 -1 -22 -9 -30 -13 -13 -16 -13 -28 0 -10 13 -10 19 0 31 16 19 29 19 37
-1z"/>
<path d="M1885 562 c-25 -6 -31 -13 -33 -39 l-3 -31 38 9 c59 13 151 11 182
-6 27 -13 41 -39 41 -75 0 -12 -20 -19 -90 -27 -136 -18 -190 -60 -190 -151 0
-44 34 -88 77 -98 40 -10 139 1 167 19 29 20 41 19 41 -3 0 -10 11 -15 35 -15
l35 0 -3 165 c-4 176 -10 200 -55 234 -23 17 -45 21 -120 23 -51 1 -105 -2
-122 -5z m225 -272 c0 -56 -2 -60 -30 -75 -40 -21 -138 -20 -162 2 -31 28 -19
81 25 105 27 14 79 25 130 27 l37 1 0 -60z"/>
<path d="M2675 561 c-25 -5 -31 -12 -33 -39 -3 -31 -2 -32 25 -25 15 4 66 8
111 8 76 0 86 -2 103 -24 10 -13 19 -36 19 -52 0 -26 -3 -29 -32 -29 -55 0
-166 -28 -192 -47 -35 -26 -56 -66 -56 -108 0 -29 8 -45 34 -71 32 -32 39 -34
98 -34 48 0 77 6 111 24 l47 23 0 -22 c0 -18 5 -21 33 -21 l33 1 -4 165 c-2
91 -8 178 -14 194 -17 44 -76 66 -173 65 -44 -1 -93 -4 -110 -8z m225 -270 c0
-71 -11 -83 -85 -89 -94 -8 -133 16 -119 73 11 44 71 71 167 74 l37 1 0 -59z"/>
</g>
</svg>
